<svg version="1.1" id="Layer_1" xmlns="http://www.w3.org/2000/svg" xmlns:xlink="http://www.w3.org/1999/xlink" x="0px" y="0px"
	 width="100%" viewBox="0 0 1080 1080" enable-background="new 0 0 1080 1080" xml:space="preserve">
<path fill="#FFFFFF" opacity="1.000000" stroke="none" 
	d="
M598.000000,1081.000000 
	C398.689606,1081.000000 199.879227,1081.000000 1.034416,1081.000000 
	C1.034416,721.064514 1.034416,361.128967 1.034416,1.096730 
	C360.893951,1.096730 720.787903,1.096730 1080.840942,1.096730 
	C1080.840942,360.999939 1080.840942,720.999939 1080.840942,1081.000000 
	C920.128479,1081.000000 759.314270,1081.000000 598.000000,1081.000000 
M469.500031,76.334991 
	C396.341400,76.346413 323.182739,76.391525 250.024170,76.337952 
	C236.983749,76.328400 224.093063,77.025002 211.506714,80.861389 
	C183.918198,89.270508 162.508606,105.663513 147.342957,130.190155 
	C135.043396,150.081619 130.857376,171.852905 130.899551,195.061523 
	C131.111282,311.549835 130.915771,428.038818 130.893814,544.527588 
	C130.871933,660.517212 130.854767,776.506775 130.961212,892.496338 
	C130.967743,899.610779 131.546387,906.816467 132.765549,913.821899 
	C137.716446,942.270325 152.274506,965.141785 174.783890,982.841736 
	C195.548737,999.169739 219.635773,1006.109253 245.869003,1006.110535 
	C341.527100,1006.115173 437.185181,1006.115601 532.843262,1006.119995 
	C641.000244,1006.125000 749.157227,1006.098572 857.314209,1006.162292 
	C885.154541,1006.178711 910.443054,998.879761 932.201355,980.967834 
	C957.889221,959.820984 972.679199,932.469299 972.740662,899.379700 
	C973.176758,664.568237 972.963501,429.755585 972.858643,194.943344 
	C972.855042,186.827118 972.213806,178.659897 971.178162,170.605377 
	C968.493530,149.727356 959.588928,131.440659 945.995789,115.638199 
	C923.179504,89.113503 893.976929,76.272789 858.965027,76.290756 
	C729.476685,76.357201 599.988403,76.328392 469.500031,76.334991 
z"/>
<path fill="#1FAAFF" opacity="1.000000" stroke="none" 
	d="
M470.000061,76.335190 
	C599.988403,76.328392 729.476685,76.357201 858.965027,76.290756 
	C893.976929,76.272789 923.179504,89.113503 945.995789,115.638199 
	C959.588928,131.440659 968.493530,149.727356 971.178162,170.605377 
	C972.213806,178.659897 972.855042,186.827118 972.858643,194.943344 
	C972.963501,429.755585 973.176758,664.568237 972.740662,899.379700 
	C972.679199,932.469299 957.889221,959.820984 932.201355,980.967834 
	C910.443054,998.879761 885.154541,1006.178711 857.314209,1006.162292 
	C749.157227,1006.098572 641.000244,1006.125000 532.843262,1006.119995 
	C437.185181,1006.115601 341.527100,1006.115173 245.869003,1006.110535 
	C219.635773,1006.109253 195.548737,999.169739 174.783890,982.841736 
	C152.274506,965.141785 137.716446,942.270325 132.765549,913.821899 
	C131.546387,906.816467 130.967743,899.610779 130.961212,892.496338 
	C130.854767,776.506775 130.871933,660.517212 130.893814,544.527588 
	C130.915771,428.038818 131.111282,311.549835 130.899551,195.061523 
	C130.857376,171.852905 135.043396,150.081619 147.342957,130.190155 
	C162.508606,105.663513 183.918198,89.270508 211.506714,80.861389 
	C224.093063,77.025002 236.983749,76.328400 250.024170,76.337952 
	C323.182739,76.391525 396.341400,76.346413 470.000061,76.335190 
M757.302856,516.184937 
	C740.536804,505.968506 721.854370,501.728912 703.443298,499.414154 
	C711.265747,493.248718 719.874023,487.761871 726.864929,480.678772 
	C740.659363,466.702484 746.652588,448.685608 747.711975,429.617218 
	C748.985474,406.697418 748.762695,383.673828 748.527466,360.701935 
	C748.443054,352.459076 746.795105,344.168121 745.248718,336.015228 
	C738.003113,297.814087 715.462341,272.525177 679.439270,258.765594 
	C653.245789,248.760544 625.795105,245.812256 598.127686,245.429565 
	C557.136475,244.862595 516.131592,245.290619 475.132507,245.289429 
	C426.633636,245.288025 378.134308,245.173431 329.636200,245.364365 
	C319.676788,245.403564 309.337799,246.738358 304.338654,256.934692 
	C301.673889,262.369873 300.303284,269.001770 300.295929,275.095856 
	C300.083649,450.924866 300.111572,626.754211 300.149963,802.583496 
	C300.151001,807.234192 300.481171,811.911011 301.036926,816.530029 
	C302.200195,826.198303 308.843811,833.358032 318.533447,835.095215 
	C323.747009,836.030029 329.096649,836.649231 334.385620,836.654236 
	C426.883392,836.742249 519.381470,836.805725 611.879028,836.637268 
	C632.355591,836.599976 652.843628,835.950012 673.302368,835.040405 
	C693.337402,834.149597 712.884705,830.287659 731.633240,822.992371 
	C759.059265,812.320618 780.184692,794.727905 792.177307,767.251831 
	C800.430542,748.342896 803.695435,728.381775 803.943787,707.947693 
	C804.273865,680.785522 804.248047,653.615234 804.018494,626.451477 
	C803.860779,607.785889 802.392700,589.232300 797.051758,571.167236 
	C790.322327,548.405823 778.309875,529.512817 757.302856,516.184937 
z"/>
<path fill="#FEFFFF" opacity="1.000000" stroke="none" 
	d="
M757.594849,516.402588 
	C778.309875,529.512817 790.322327,548.405823 797.051758,571.167236 
	C802.392700,589.232300 803.860779,607.785889 804.018494,626.451477 
	C804.248047,653.615234 804.273865,680.785522 803.943787,707.947693 
	C803.695435,728.381775 800.430542,748.342896 792.177307,767.251831 
	C780.184692,794.727905 759.059265,812.320618 731.633240,822.992371 
	C712.884705,830.287659 693.337402,834.149597 673.302368,835.040405 
	C652.843628,835.950012 632.355591,836.599976 611.879028,836.637268 
	C519.381470,836.805725 426.883392,836.742249 334.385620,836.654236 
	C329.096649,836.649231 323.747009,836.030029 318.533447,835.095215 
	C308.843811,833.358032 302.200195,826.198303 301.036926,816.530029 
	C300.481171,811.911011 300.151001,807.234192 300.149963,802.583496 
	C300.111572,626.754211 300.083649,450.924866 300.295929,275.095856 
	C300.303284,269.001770 301.673889,262.369873 304.338654,256.934692 
	C309.337799,246.738358 319.676788,245.403564 329.636200,245.364365 
	C378.134308,245.173431 426.633636,245.288025 475.132507,245.289429 
	C516.131592,245.290619 557.136475,244.862595 598.127686,245.429565 
	C625.795105,245.812256 653.245789,248.760544 679.439270,258.765594 
	C715.462341,272.525177 738.003113,297.814087 745.248718,336.015228 
	C746.795105,344.168121 748.443054,352.459076 748.527466,360.701935 
	C748.762695,383.673828 748.985474,406.697418 747.711975,429.617218 
	C746.652588,448.685608 740.659363,466.702484 726.864929,480.678772 
	C719.874023,487.761871 711.265747,493.248718 703.443298,499.414154 
	C721.854370,501.728912 740.536804,505.968506 757.594849,516.402588 
M622.769592,663.319336 
	C622.572876,650.839478 622.707031,638.342468 622.059692,625.886047 
	C621.648010,617.965698 619.213928,610.555786 612.270142,605.499084 
	C606.170532,601.057129 599.131653,600.047058 591.932922,600.026917 
	C557.958679,599.932068 523.984070,599.973083 490.009583,599.965637 
	C488.421234,599.965271 486.832886,599.965576 485.116425,599.965576 
	C485.116425,632.644897 485.116425,664.551270 485.116425,696.638184 
	C485.953522,696.777893 486.580658,696.974121 487.207886,696.974243 
	C523.347168,696.981079 559.490479,697.235962 595.621704,696.692322 
	C601.342346,696.606201 607.763000,693.990723 612.537048,690.652710 
	C621.394226,684.459717 622.281982,674.226318 622.769592,663.319336 
M585.628662,415.982666 
	C585.515076,415.158173 585.324524,414.336060 585.299377,413.508881 
	C584.711060,394.202789 573.576843,384.816803 553.934326,384.963501 
	C532.785706,385.121460 511.634949,384.999634 490.485138,384.999878 
	C488.719055,384.999878 486.952972,384.999878 485.215057,384.999878 
	C485.215057,414.882721 485.215057,444.098450 485.215057,473.305481 
	C486.025665,473.527527 486.492279,473.766846 486.959106,473.767273 
	C510.440033,473.788727 533.931091,474.214233 557.398560,473.652527 
	C574.728394,473.237762 583.671631,464.502747 585.124146,447.335632 
	C585.977722,437.247253 585.566772,427.051910 585.628662,415.982666 
z"/>
<path fill="#20AAFE" opacity="1.000000" stroke="none" 
	d="
M622.767273,663.793457 
	C622.281982,674.226318 621.394226,684.459717 612.537048,690.652710 
	C607.763000,693.990723 601.342346,696.606201 595.621704,696.692322 
	C559.490479,697.235962 523.347168,696.981079 487.207886,696.974243 
	C486.580658,696.974121 485.953522,696.777893 485.116425,696.638184 
	C485.116425,664.551270 485.116425,632.644897 485.116425,599.965576 
	C486.832886,599.965576 488.421234,599.965271 490.009583,599.965637 
	C523.984070,599.973083 557.958679,599.932068 591.932922,600.026917 
	C599.131653,600.047058 606.170532,601.057129 612.270142,605.499084 
	C619.213928,610.555786 621.648010,617.965698 622.059692,625.886047 
	C622.707031,638.342468 622.572876,650.839478 622.767273,663.793457 
z"/>
<path fill="#21AAFE" opacity="1.000000" stroke="none" 
	d="
M585.676636,416.443665 
	C585.566772,427.051910 585.977722,437.247253 585.124146,447.335632 
	C583.671631,464.502747 574.728394,473.237762 557.398560,473.652527 
	C533.931091,474.214233 510.440033,473.788727 486.959106,473.767273 
	C486.492279,473.766846 486.025665,473.527527 485.215057,473.305481 
	C485.215057,444.098450 485.215057,414.882721 485.215057,384.999878 
	C486.952972,384.999878 488.719055,384.999878 490.485138,384.999878 
	C511.634949,384.999634 532.785706,385.121460 553.934326,384.963501 
	C573.576843,384.816803 584.711060,394.202789 585.299377,413.508881 
	C585.324524,414.336060 585.515076,415.158173 585.676636,416.443665 
z"/>
</svg>