<svg version="1.1" id="Layer_1" xmlns="http://www.w3.org/2000/svg" xmlns:xlink="http://www.w3.org/1999/xlink" x="0px" y="0px"
	 width="100%" viewBox="0 0 1080 273" enable-background="new 0 0 1080 273" xml:space="preserve">
<path fill="#FDFEFE" opacity="1.000000" stroke="none" 
	d="
M715.000000,274.000000 
	C476.666718,274.000000 238.833420,274.000000 1.000096,274.000000 
	C1.000064,183.000061 1.000064,92.000114 1.000032,1.000132 
	C360.999878,1.000088 720.999756,1.000088 1080.999756,1.000044 
	C1080.999756,91.999855 1080.999756,182.999710 1080.999878,273.999786 
	C959.166687,274.000000 837.333313,274.000000 715.000000,274.000000 
M395.855377,135.500000 
	C395.868408,167.987320 395.866058,200.474640 395.903259,232.961929 
	C395.915436,243.601898 399.993378,252.302261 408.388000,258.980743 
	C415.181580,264.385529 423.241577,265.651031 431.434662,265.682068 
	C486.245270,265.889740 541.057373,266.053833 595.866516,265.763489 
	C601.744263,265.732330 608.121460,263.652832 613.369690,260.845917 
	C624.816589,254.723679 628.406006,244.138153 628.365112,231.487167 
	C628.169922,171.177765 628.287170,110.867363 628.276733,50.557316 
	C628.275879,45.726994 628.413940,40.875355 628.026306,36.070831 
	C627.220459,26.082792 622.054932,18.723310 613.727173,13.342140 
	C606.971191,8.976656 599.405090,8.137110 591.701965,8.137541 
	C555.218506,8.139583 518.734863,8.218669 482.251587,8.342461 
	C464.264404,8.403493 446.276031,8.511815 428.291351,8.796563 
	C408.360779,9.112121 395.975922,21.628595 395.910095,41.536026 
	C395.807648,72.523743 395.865356,103.511978 395.855377,135.500000 
M135.614395,192.090179 
	C149.213730,172.850632 153.762375,151.252243 151.634399,128.159790 
	C150.141571,111.959793 145.003769,96.924393 134.441711,84.213005 
	C120.264801,67.151176 101.440475,59.049416 79.779945,58.233604 
	C57.828159,57.406822 35.825569,57.910004 13.845157,57.874275 
	C7.340954,57.863705 7.321744,57.931374 7.322764,64.593178 
	C7.330389,114.383553 7.345809,164.173920 7.361583,213.964294 
	C7.361952,215.129654 7.432471,216.295868 7.405846,217.460220 
	C7.325313,220.981918 8.796891,222.324173 12.521132,222.291611 
	C33.500820,222.108185 54.490276,222.518158 75.461761,222.058258 
	C99.774361,221.525101 119.913826,211.878510 135.614395,192.090179 
M848.757446,163.484024 
	C849.509094,179.924927 853.545715,195.054916 865.770081,207.044739 
	C882.609375,223.560928 912.693420,224.358826 927.074768,207.703064 
	C927.723389,206.951874 928.825623,206.592346 930.633728,205.492416 
	C930.217590,211.453354 930.361267,216.499725 929.430786,221.339600 
	C927.026672,233.843597 918.630554,241.503204 905.975708,243.194382 
	C893.893311,244.809021 882.480408,242.079865 871.390564,237.503464 
	C869.785278,236.840988 868.146667,236.259232 865.904175,235.403900 
	C863.878052,243.126022 862.141357,250.202698 860.137817,257.203033 
	C859.006287,261.156586 860.101929,263.355133 864.051575,264.771515 
	C886.245605,272.730377 908.663635,274.011383 931.155823,266.579895 
	C948.359985,260.895569 959.106506,248.748825 962.877625,231.063797 
	C964.673401,222.642380 965.875122,213.942535 966.016113,205.347015 
	C966.545959,173.024796 966.503845,140.693420 966.761658,108.366165 
	C966.782959,105.692924 966.194336,104.338753 963.221802,104.381676 
	C955.390442,104.494728 947.554749,104.509422 939.724182,104.370049 
	C936.382141,104.310570 935.404846,105.976166 935.238220,108.927025 
	C935.098572,111.398232 934.626221,113.850639 934.249817,116.700493 
	C929.602173,112.901306 926.113342,109.236885 921.920959,106.766518 
	C905.814514,97.275841 882.213745,101.228531 867.472168,115.484268 
	C854.165588,128.352249 849.408081,144.614059 848.757446,163.484024 
M730.634949,210.894348 
	C750.950317,227.452026 782.962769,227.478317 804.097107,215.250336 
	C834.086121,197.899185 837.526733,156.923462 825.640198,132.573318 
	C807.188843,94.774673 755.987610,95.399925 732.182983,114.134842 
	C717.969971,125.320877 711.475159,140.333679 710.292969,157.840027 
	C708.913696,178.265335 713.990234,196.480515 730.634949,210.894348 
M379.141022,59.371315 
	C377.364136,58.837864 375.590973,57.856354 373.809753,57.841461 
	C358.815582,57.716122 343.819885,57.769424 328.824677,57.765732 
	C302.166443,57.759167 275.507904,57.811733 248.850372,57.671467 
	C245.156204,57.652031 243.775604,58.731232 243.960831,62.494537 
	C244.247253,68.313721 244.477982,74.179276 244.059753,79.976646 
	C243.679108,85.252953 246.088165,86.662018 250.716507,86.630066 
	C262.712006,86.547218 274.731659,87.070450 286.696899,86.465782 
	C295.571289,86.017311 294.121307,87.718803 294.122284,94.083359 
	C294.128479,134.737198 294.181641,175.391235 294.038239,216.044571 
	C294.021912,220.677002 295.148895,222.653564 300.166412,222.374725 
	C307.308319,221.977798 314.489380,222.292252 321.653717,222.289413 
	C329.164276,222.286423 329.203186,222.279526 329.206390,214.648575 
	C329.223602,173.994705 329.298401,133.340485 329.119110,92.687431 
	C329.097748,87.841408 330.467010,86.411270 335.303589,86.538933 
	C347.957581,86.872940 360.626221,86.609894 373.288055,86.710732 
	C377.824097,86.746857 380.065674,85.134491 379.780029,80.223473 
	C379.393646,73.580475 379.454865,66.911446 379.141022,59.371315 
M1062.835693,214.352753 
	C1080.475464,202.418991 1080.742676,176.662933 1069.046387,164.039429 
	C1062.736938,157.229736 1054.579224,153.551758 1046.181152,150.182037 
	C1040.941772,148.079758 1035.512573,146.166428 1030.791626,143.182373 
	C1028.602051,141.798340 1026.553833,137.884247 1026.880493,135.443451 
	C1027.241455,132.744904 1029.932983,129.628860 1032.460938,128.155411 
	C1034.970703,126.692535 1038.656616,126.289703 1041.620972,126.749344 
	C1049.590576,127.985130 1057.450439,129.929718 1066.046875,131.738693 
	C1067.598877,125.675774 1069.170166,118.908195 1071.104370,112.245949 
	C1072.089355,108.853050 1070.884644,107.327332 1067.814331,106.348740 
	C1053.615234,101.823120 1039.211914,100.077217 1024.513184,103.350868 
	C1013.207886,105.868721 1003.589294,111.394386 997.229370,121.263969 
	C986.180359,138.410309 991.801636,158.415848 1010.715210,168.660233 
	C1018.289734,172.762924 1026.581299,175.524582 1034.456177,179.095718 
	C1040.498169,181.835678 1042.578003,185.127930 1041.977539,190.106949 
	C1041.410400,194.807999 1038.309204,197.517563 1031.680664,198.510910 
	C1028.750000,198.950104 1025.575073,199.294342 1022.754150,198.637512 
	C1015.163940,196.870178 1007.698792,194.561111 1000.198242,192.417114 
	C998.691589,191.986435 997.248047,191.335052 995.103821,190.534790 
	C993.186157,198.639145 991.255432,206.018723 989.857544,213.497894 
	C989.632690,214.700897 991.525757,217.250717 992.881775,217.640717 
	C1000.526001,219.839157 1008.211365,222.386337 1016.057983,223.285858 
	C1032.181641,225.134277 1048.049438,224.058014 1062.835693,214.352753 
M686.924194,179.500000 
	C686.931702,138.519577 686.897217,97.539032 687.016663,56.558933 
	C687.027649,52.783375 686.144470,51.156712 682.049377,51.273773 
	C673.227478,51.525951 664.391663,51.457073 655.565308,51.305019 
	C652.161011,51.246380 650.863770,52.351841 650.933472,55.895741 
	C651.130066,65.887177 651.009399,75.884857 651.012634,85.880081 
	C651.026672,129.026154 651.089783,172.172348 650.974426,215.318069 
	C650.963379,219.452393 651.728760,221.331589 656.393799,221.135483 
	C665.041382,220.771942 673.716858,220.896881 682.375854,221.066498 
	C685.825012,221.134079 687.028564,219.999374 686.978210,216.481766 
	C686.806763,204.490036 686.919800,192.494247 686.924194,179.500000 
M219.042572,129.500000 
	C219.026962,107.184265 218.936584,84.868095 219.069489,62.553242 
	C219.091614,58.840511 217.972595,57.577957 214.239777,57.682526 
	C206.085892,57.910950 197.913818,57.966217 189.764038,57.675686 
	C185.308075,57.516838 183.709869,58.712723 183.794968,63.499100 
	C184.102829,80.813461 183.939377,98.136337 183.939957,115.456001 
	C183.941101,149.262848 183.989639,183.069916 183.854294,216.876236 
	C183.837997,220.948196 185.007889,222.459671 189.205688,222.314896 
	C197.023026,222.045303 204.871490,221.975632 212.678940,222.373535 
	C217.727707,222.630859 219.194275,221.008087 219.152939,215.932129 
	C218.921005,187.456345 219.042068,158.977676 219.042572,129.500000 
z"/>
<path fill="#21ABFE" opacity="1.000000" stroke="none" 
	d="
M395.855286,135.000000 
	C395.865356,103.511978 395.807648,72.523743 395.910095,41.536026 
	C395.975922,21.628595 408.360779,9.112121 428.291351,8.796563 
	C446.276031,8.511815 464.264404,8.403493 482.251587,8.342461 
	C518.734863,8.218669 555.218506,8.139583 591.701965,8.137541 
	C599.405090,8.137110 606.971191,8.976656 613.727173,13.342140 
	C622.054932,18.723310 627.220459,26.082792 628.026306,36.070831 
	C628.413940,40.875355 628.275879,45.726994 628.276733,50.557316 
	C628.287170,110.867363 628.169922,171.177765 628.365112,231.487167 
	C628.406006,244.138153 624.816589,254.723679 613.369690,260.845917 
	C608.121460,263.652832 601.744263,265.732330 595.866516,265.763489 
	C541.057373,266.053833 486.245270,265.889740 431.434662,265.682068 
	C423.241577,265.651031 415.181580,264.385529 408.388000,258.980743 
	C399.993378,252.302261 395.915436,243.601898 395.903259,232.961929 
	C395.866058,200.474640 395.868408,167.987320 395.855286,135.000000 
M465.501801,55.167381 
	C461.669525,55.164204 457.837280,55.155918 454.005005,55.158844 
	C444.017487,55.166470 442.405060,56.370415 442.399628,66.140274 
	C442.373199,113.791000 442.493164,161.442032 442.686432,209.092438 
	C442.720032,217.375671 444.466675,218.782211 452.854126,218.784927 
	C473.682617,218.791687 494.511688,218.878357 515.339355,218.747528 
	C526.658386,218.676437 538.005493,218.653976 549.285400,217.847336 
	C566.098755,216.644943 578.733276,207.190002 580.457336,192.034241 
	C582.097229,177.618210 581.669067,162.745209 580.215759,148.267303 
	C578.993774,136.093735 570.706177,128.508743 558.339722,126.088158 
	C557.338867,125.892258 556.406189,125.348251 554.625549,124.642464 
	C562.760010,120.101791 565.902588,113.151711 566.394775,105.245857 
	C566.857727,97.809464 566.605652,90.262199 565.908630,82.834999 
	C564.771790,70.721268 558.059692,62.211323 546.544128,58.663975 
	C539.501099,56.494400 531.878052,55.488689 524.484131,55.317150 
	C505.165649,54.868977 485.829895,55.167084 465.501801,55.167381 
z"/>
<path fill="#22ABFE" opacity="1.000000" stroke="none" 
	d="
M135.401947,192.377899 
	C119.913826,211.878510 99.774361,221.525101 75.461761,222.058258 
	C54.490276,222.518158 33.500820,222.108185 12.521132,222.291611 
	C8.796891,222.324173 7.325313,220.981918 7.405846,217.460220 
	C7.432471,216.295868 7.361952,215.129654 7.361583,213.964294 
	C7.345809,164.173920 7.330389,114.383553 7.322764,64.593178 
	C7.321744,57.931374 7.340954,57.863705 13.845157,57.874275 
	C35.825569,57.910004 57.828159,57.406822 79.779945,58.233604 
	C101.440475,59.049416 120.264801,67.151176 134.441711,84.213005 
	C145.003769,96.924393 150.141571,111.959793 151.634399,128.159790 
	C153.762375,151.252243 149.213730,172.850632 135.401947,192.377899 
M105.969543,102.627747 
	C100.903183,95.721809 94.612740,89.572792 86.176094,88.372932 
	C72.907654,86.485901 59.402882,86.192276 45.981743,85.590378 
	C45.013504,85.546951 43.012230,88.478149 43.004311,90.033997 
	C42.834831,123.339775 42.907688,156.646698 42.844738,189.953232 
	C42.838753,193.120941 43.868427,194.436432 47.166374,194.366318 
	C56.488476,194.168152 65.849701,194.682938 75.132431,194.025711 
	C88.861359,193.053696 99.870911,187.093353 107.098549,174.799149 
	C113.024277,164.719467 115.023338,153.852951 115.443367,142.351715 
	C115.952507,128.410538 114.365593,115.125443 105.969543,102.627747 
z"/>
<path fill="#565656" opacity="1.000000" stroke="none" 
	d="
M848.758545,162.999298 
	C849.408081,144.614059 854.165588,128.352249 867.472168,115.484268 
	C882.213745,101.228531 905.814514,97.275841 921.920959,106.766518 
	C926.113342,109.236885 929.602173,112.901306 934.249817,116.700493 
	C934.626221,113.850639 935.098572,111.398232 935.238220,108.927025 
	C935.404846,105.976166 936.382141,104.310570 939.724182,104.370049 
	C947.554749,104.509422 955.390442,104.494728 963.221802,104.381676 
	C966.194336,104.338753 966.782959,105.692924 966.761658,108.366165 
	C966.503845,140.693420 966.545959,173.024796 966.016113,205.347015 
	C965.875122,213.942535 964.673401,222.642380 962.877625,231.063797 
	C959.106506,248.748825 948.359985,260.895569 931.155823,266.579895 
	C908.663635,274.011383 886.245605,272.730377 864.051575,264.771515 
	C860.101929,263.355133 859.006287,261.156586 860.137817,257.203033 
	C862.141357,250.202698 863.878052,243.126022 865.904175,235.403900 
	C868.146667,236.259232 869.785278,236.840988 871.390564,237.503464 
	C882.480408,242.079865 893.893311,244.809021 905.975708,243.194382 
	C918.630554,241.503204 927.026672,233.843597 929.430786,221.339600 
	C930.361267,216.499725 930.217590,211.453354 930.633728,205.492416 
	C928.825623,206.592346 927.723389,206.951874 927.074768,207.703064 
	C912.693420,224.358826 882.609375,223.560928 865.770081,207.044739 
	C853.545715,195.054916 849.509094,179.924927 848.758545,162.999298 
M891.945618,138.517395 
	C883.371338,152.812607 882.784302,167.537491 890.527710,182.190414 
	C895.173340,190.981415 905.315125,194.953583 914.350098,192.636841 
	C923.392029,190.318314 929.647644,182.035416 929.860718,171.779984 
	C930.005920,164.790634 929.946106,157.794754 929.857178,150.803345 
	C929.732605,141.003250 924.318604,132.801056 916.274536,130.014847 
	C907.583496,127.004570 898.820984,129.908600 891.945618,138.517395 
z"/>
<path fill="#575757" opacity="1.000000" stroke="none" 
	d="
M730.369019,210.659271 
	C713.990234,196.480515 708.913696,178.265335 710.292969,157.840027 
	C711.475159,140.333679 717.969971,125.320877 732.182983,114.134842 
	C755.987610,95.399925 807.188843,94.774673 825.640198,132.573318 
	C837.526733,156.923462 834.086121,197.899185 804.097107,215.250336 
	C782.962769,227.478317 750.950317,227.452026 730.369019,210.659271 
M752.066895,139.715775 
	C745.977356,153.636200 745.842346,167.819107 750.592773,182.062683 
	C753.890625,191.950912 761.236633,197.659912 770.194031,197.927612 
	C779.732178,198.212692 787.067749,193.252411 791.026428,183.152283 
	C796.351135,169.567230 796.200684,155.776016 790.990906,142.213043 
	C787.822571,133.964645 782.263489,127.945938 772.774658,127.297218 
	C763.461548,126.660507 756.902527,131.153854 752.066895,139.715775 
z"/>
<path fill="#22AAFD" opacity="1.000000" stroke="none" 
	d="
M379.232544,59.812447 
	C379.454865,66.911446 379.393646,73.580475 379.780029,80.223473 
	C380.065674,85.134491 377.824097,86.746857 373.288055,86.710732 
	C360.626221,86.609894 347.957581,86.872940 335.303589,86.538933 
	C330.467010,86.411270 329.097748,87.841408 329.119110,92.687431 
	C329.298401,133.340485 329.223602,173.994705 329.206390,214.648575 
	C329.203186,222.279526 329.164276,222.286423 321.653717,222.289413 
	C314.489380,222.292252 307.308319,221.977798 300.166412,222.374725 
	C295.148895,222.653564 294.021912,220.677002 294.038239,216.044571 
	C294.181641,175.391235 294.128479,134.737198 294.122284,94.083359 
	C294.121307,87.718803 295.571289,86.017311 286.696899,86.465782 
	C274.731659,87.070450 262.712006,86.547218 250.716507,86.630066 
	C246.088165,86.662018 243.679108,85.252953 244.059753,79.976646 
	C244.477982,74.179276 244.247253,68.313721 243.960831,62.494537 
	C243.775604,58.731232 245.156204,57.652031 248.850372,57.671467 
	C275.507904,57.811733 302.166443,57.759167 328.824677,57.765732 
	C343.819885,57.769424 358.815582,57.716122 373.809753,57.841461 
	C375.590973,57.856354 377.364136,58.837864 379.232544,59.812447 
z"/>
<path fill="#575757" opacity="1.000000" stroke="none" 
	d="
M1062.548828,214.573029 
	C1048.049438,224.058014 1032.181641,225.134277 1016.057983,223.285858 
	C1008.211365,222.386337 1000.526001,219.839157 992.881775,217.640717 
	C991.525757,217.250717 989.632690,214.700897 989.857544,213.497894 
	C991.255432,206.018723 993.186157,198.639145 995.103821,190.534790 
	C997.248047,191.335052 998.691589,191.986435 1000.198242,192.417114 
	C1007.698792,194.561111 1015.163940,196.870178 1022.754150,198.637512 
	C1025.575073,199.294342 1028.750000,198.950104 1031.680664,198.510910 
	C1038.309204,197.517563 1041.410400,194.807999 1041.977539,190.106949 
	C1042.578003,185.127930 1040.498169,181.835678 1034.456177,179.095718 
	C1026.581299,175.524582 1018.289734,172.762924 1010.715210,168.660233 
	C991.801636,158.415848 986.180359,138.410309 997.229370,121.263969 
	C1003.589294,111.394386 1013.207886,105.868721 1024.513184,103.350868 
	C1039.211914,100.077217 1053.615234,101.823120 1067.814331,106.348740 
	C1070.884644,107.327332 1072.089355,108.853050 1071.104370,112.245949 
	C1069.170166,118.908195 1067.598877,125.675774 1066.046875,131.738693 
	C1057.450439,129.929718 1049.590576,127.985130 1041.620972,126.749344 
	C1038.656616,126.289703 1034.970703,126.692535 1032.460938,128.155411 
	C1029.932983,129.628860 1027.241455,132.744904 1026.880493,135.443451 
	C1026.553833,137.884247 1028.602051,141.798340 1030.791626,143.182373 
	C1035.512573,146.166428 1040.941772,148.079758 1046.181152,150.182037 
	C1054.579224,153.551758 1062.736938,157.229736 1069.046387,164.039429 
	C1080.742676,176.662933 1080.475464,202.418991 1062.548828,214.573029 
z"/>
<path fill="#575757" opacity="1.000000" stroke="none" 
	d="
M686.924194,180.000000 
	C686.919800,192.494247 686.806763,204.490036 686.978210,216.481766 
	C687.028564,219.999374 685.825012,221.134079 682.375854,221.066498 
	C673.716858,220.896881 665.041382,220.771942 656.393799,221.135483 
	C651.728760,221.331589 650.963379,219.452393 650.974426,215.318069 
	C651.089783,172.172348 651.026672,129.026154 651.012634,85.880081 
	C651.009399,75.884857 651.130066,65.887177 650.933472,55.895741 
	C650.863770,52.351841 652.161011,51.246380 655.565308,51.305019 
	C664.391663,51.457073 673.227478,51.525951 682.049377,51.273773 
	C686.144470,51.156712 687.027649,52.783375 687.016663,56.558933 
	C686.897217,97.539032 686.931702,138.519577 686.924194,180.000000 
z"/>
<path fill="#22ABFE" opacity="1.000000" stroke="none" 
	d="
M219.042603,130.000000 
	C219.042068,158.977676 218.921005,187.456345 219.152939,215.932129 
	C219.194275,221.008087 217.727707,222.630859 212.678940,222.373535 
	C204.871490,221.975632 197.023026,222.045303 189.205688,222.314896 
	C185.007889,222.459671 183.837997,220.948196 183.854294,216.876236 
	C183.989639,183.069916 183.941101,149.262848 183.939957,115.456001 
	C183.939377,98.136337 184.102829,80.813461 183.794968,63.499100 
	C183.709869,58.712723 185.308075,57.516838 189.764038,57.675686 
	C197.913818,57.966217 206.085892,57.910950 214.239777,57.682526 
	C217.972595,57.577957 219.091614,58.840511 219.069489,62.553242 
	C218.936584,84.868095 219.026962,107.184265 219.042603,130.000000 
z"/>
<path fill="#FCFEFE" opacity="1.000000" stroke="none" 
	d="
M466.001404,55.167511 
	C485.829895,55.167084 505.165649,54.868977 524.484131,55.317150 
	C531.878052,55.488689 539.501099,56.494400 546.544128,58.663975 
	C558.059692,62.211323 564.771790,70.721268 565.908630,82.834999 
	C566.605652,90.262199 566.857727,97.809464 566.394775,105.245857 
	C565.902588,113.151711 562.760010,120.101791 554.625549,124.642464 
	C556.406189,125.348251 557.338867,125.892258 558.339722,126.088158 
	C570.706177,128.508743 578.993774,136.093735 580.215759,148.267303 
	C581.669067,162.745209 582.097229,177.618210 580.457336,192.034241 
	C578.733276,207.190002 566.098755,216.644943 549.285400,217.847336 
	C538.005493,218.653976 526.658386,218.676437 515.339355,218.747528 
	C494.511688,218.878357 473.682617,218.791687 452.854126,218.784927 
	C444.466675,218.782211 442.720032,217.375671 442.686432,209.092438 
	C442.493164,161.442032 442.373199,113.791000 442.399628,66.140274 
	C442.405060,56.370415 444.017487,55.166470 454.005005,55.158844 
	C457.837280,55.155918 461.669525,55.164204 466.001404,55.167511 
M530.980713,175.099258 
	C531.066772,170.126999 531.326294,165.149979 531.190125,160.183823 
	C531.054199,155.230957 527.909607,153.182220 523.270020,153.139511 
	C516.774353,153.079712 510.277802,153.114014 503.781616,153.109894 
	C500.373688,153.107742 496.965759,153.109528 493.620850,153.109528 
	C493.620850,162.551239 493.620850,171.110092 493.620850,179.939789 
	C504.353455,179.939789 514.674438,180.149704 524.972473,179.757233 
	C526.958557,179.681534 528.854675,177.246384 530.980713,175.099258 
M521.389709,110.710197 
	C521.409607,107.891930 521.709778,105.041733 521.393066,102.261833 
	C520.660217,95.830925 518.440308,93.918915 511.967682,93.810509 
	C506.978821,93.726952 501.985260,93.883514 496.998016,93.760902 
	C494.305695,93.694725 493.067444,94.511528 493.153931,97.444290 
	C493.325409,103.261520 493.303009,109.089935 493.158417,114.908691 
	C493.086731,117.794540 494.312866,118.693207 497.025269,118.629684 
	C502.179382,118.508972 507.339447,118.660690 512.494751,118.569572 
	C517.171570,118.486916 520.538513,116.623444 521.389709,110.710197 
z"/>
<path fill="#FDFEFF" opacity="1.000000" stroke="none" 
	d="
M106.135056,102.947891 
	C114.365593,115.125443 115.952507,128.410538 115.443367,142.351715 
	C115.023338,153.852951 113.024277,164.719467 107.098549,174.799149 
	C99.870911,187.093353 88.861359,193.053696 75.132431,194.025711 
	C65.849701,194.682938 56.488476,194.168152 47.166374,194.366318 
	C43.868427,194.436432 42.838753,193.120941 42.844738,189.953232 
	C42.907688,156.646698 42.834831,123.339775 43.004311,90.033997 
	C43.012230,88.478149 45.013504,85.546951 45.981743,85.590378 
	C59.402882,86.192276 72.907654,86.485901 86.176094,88.372932 
	C94.612740,89.572792 100.903183,95.721809 106.135056,102.947891 
z"/>
<path fill="#FCFCFC" opacity="1.000000" stroke="none" 
	d="
M892.161499,138.226135 
	C898.820984,129.908600 907.583496,127.004570 916.274536,130.014847 
	C924.318604,132.801056 929.732605,141.003250 929.857178,150.803345 
	C929.946106,157.794754 930.005920,164.790634 929.860718,171.779984 
	C929.647644,182.035416 923.392029,190.318314 914.350098,192.636841 
	C905.315125,194.953583 895.173340,190.981415 890.527710,182.190414 
	C882.784302,167.537491 883.371338,152.812607 892.161499,138.226135 
z"/>
<path fill="#FCFCFC" opacity="1.000000" stroke="none" 
	d="
M752.241333,139.386276 
	C756.902527,131.153854 763.461548,126.660507 772.774658,127.297218 
	C782.263489,127.945938 787.822571,133.964645 790.990906,142.213043 
	C796.200684,155.776016 796.351135,169.567230 791.026428,183.152283 
	C787.067749,193.252411 779.732178,198.212692 770.194031,197.927612 
	C761.236633,197.659912 753.890625,191.950912 750.592773,182.062683 
	C745.842346,167.819107 745.977356,153.636200 752.241333,139.386276 
z"/>
<path fill="#28ACFB" opacity="1.000000" stroke="none" 
	d="
M530.886475,175.499466 
	C528.854675,177.246384 526.958557,179.681534 524.972473,179.757233 
	C514.674438,180.149704 504.353455,179.939789 493.620850,179.939789 
	C493.620850,171.110092 493.620850,162.551239 493.620850,153.109528 
	C496.965759,153.109528 500.373688,153.107742 503.781616,153.109894 
	C510.277802,153.114014 516.774353,153.079712 523.270020,153.139511 
	C527.909607,153.182220 531.054199,155.230957 531.190125,160.183823 
	C531.326294,165.149979 531.066772,170.126999 530.886475,175.499466 
z"/>
<path fill="#29ACFA" opacity="1.000000" stroke="none" 
	d="
M521.297791,111.111130 
	C520.538513,116.623444 517.171570,118.486916 512.494751,118.569572 
	C507.339447,118.660690 502.179382,118.508972 497.025269,118.629684 
	C494.312866,118.693207 493.086731,117.794540 493.158417,114.908691 
	C493.303009,109.089935 493.325409,103.261520 493.153931,97.444290 
	C493.067444,94.511528 494.305695,93.694725 496.998016,93.760902 
	C501.985260,93.883514 506.978821,93.726952 511.967682,93.810509 
	C518.440308,93.918915 520.660217,95.830925 521.393066,102.261833 
	C521.709778,105.041733 521.409607,107.891930 521.297791,111.111130 
z"/>
</svg>